HIERARCHY
ROOT root
{
	OFFSET	0	13.1	24.9
	CHANNELS 6  Xposition Yposition Zposition Xrotation Yrotation Zrotation
	JOINT spine_1
	{
		OFFSET	0	9.99999	0
		CHANNELS 3  Xrotation Yrotation Zrotation
		JOINT spine_2
		{
			OFFSET	0	112	-10
			CHANNELS 3  Xrotation Yrotation Zrotation
			JOINT spine_3
			{
				OFFSET	0	206.5	19.3
				CHANNELS 3  Xrotation Yrotation Zrotation
				JOINT spine_4
				{
					OFFSET	0	110.4	14.6
					CHANNELS 3  Xrotation Yrotation Zrotation
					JOINT neck_1
					{
						OFFSET	0	71.8	-50.3
						CHANNELS 3  Xrotation Yrotation Zrotation
						JOINT neck_2
						{
							OFFSET	0	86.2	-25.8
							CHANNELS 3  Xrotation Yrotation Zrotation
							JOINT head_ee
							{
								OFFSET	0	179.8	-8.7
								CHANNELS 3  Xrotation Yrotation Zrotation
								End Site
								{
									OFFSET	1	0	0
								}
							}
						}
					}
					JOINT left_clavicle
					{
						OFFSET	-43.2	22.4	-70.8
						CHANNELS 3  Xrotation Yrotation Zrotation
						JOINT left_shoulder
						{
							OFFSET	-93.9	-5.79999	48.7
							CHANNELS 3  Xrotation Yrotation Zrotation
							JOINT left_elbow
							{
								OFFSET	-291.4	-30.8	15.2
								CHANNELS 3  Xrotation Yrotation Zrotation
								JOINT left_lowarm_twist
								{
									OFFSET	-110.7	-3.89999	13.6
									CHANNELS 3  Xrotation Yrotation Zrotation
									JOINT left_hand
									{
										OFFSET	-110.7	-3.89999	13.6
										CHANNELS 3  Xrotation Yrotation Zrotation
										JOINT left_ee
										{
											OFFSET	-80.8	-5.10001	12.1
											CHANNELS 3  Xrotation Yrotation Zrotation
											End Site
											{
												OFFSET	1	0	0
											}
										}
									}
								}
							}
						}
					}
					JOINT right_clavicle
					{
						OFFSET	43.2	22.4	-70.8
						CHANNELS 3  Xrotation Yrotation Zrotation
						JOINT right_shoulder
						{
							OFFSET	93.9	-5.79999	48.7
							CHANNELS 3  Xrotation Yrotation Zrotation
							JOINT right_elbow
							{
								OFFSET	291.4	-30.8	15.2
								CHANNELS 3  Xrotation Yrotation Zrotation
								JOINT right_lowarm_twist
								{
									OFFSET	110.7	-3.89999	13.6
									CHANNELS 3  Xrotation Yrotation Zrotation
									JOINT right_hand
									{
										OFFSET	110.7	-3.89999	13.6
										CHANNELS 3  Xrotation Yrotation Zrotation
										JOINT right_ee
										{
											OFFSET	80.8	-5.10001	12.1
											CHANNELS 3  Xrotation Yrotation Zrotation
											End Site
											{
												OFFSET	1	0	0
											}
										}
									}
								}
							}
						}
					}
				}
			}
		}
	}
	JOINT left_hip
	{
		OFFSET	-82.8	-127.5	0.300001
		CHANNELS 3  Xrotation Yrotation Zrotation
		JOINT left_knee
		{
			OFFSET	-28.2	-396.7	2.2
			CHANNELS 3  Xrotation Yrotation Zrotation
			JOINT left_ankle
			{
				OFFSET	-11.7	-411.3	35.4
				CHANNELS 3  Xrotation Yrotation Zrotation
				JOINT left_toes
				{
					OFFSET	0	-60	-88.6
					CHANNELS 3  Xrotation Yrotation Zrotation
					JOINT left_foot_ee
					{
						OFFSET	-22.5	-16.5	-42.2
						CHANNELS 3  Xrotation Yrotation Zrotation
						End Site
						{
							OFFSET	1	0	0
						}
					}
				}
			}
		}
	}
	JOINT right_hip
	{
		OFFSET	82.8	-127.5	0.300001
		CHANNELS 3  Xrotation Yrotation Zrotation
		JOINT right_knee
		{
			OFFSET	28.2	-396.7	2.2
			CHANNELS 3  Xrotation Yrotation Zrotation
			JOINT right_ankle
			{
				OFFSET	11.7	-411.3	35.4
				CHANNELS 3  Xrotation Yrotation Zrotation
				JOINT right_toes
				{
					OFFSET	0	-60	-88.6
					CHANNELS 3  Xrotation Yrotation Zrotation
					JOINT right_foot_ee
					{
						OFFSET	22.5	-16.5	-42.2
						CHANNELS 3  Xrotation Yrotation Zrotation
						End Site
						{
							OFFSET	1	0	0
						}
					}
				}
			}
		}
	}
}
MOTION
Frames: 6
Frame Time: 0.02
896.953 742.003 -1515.06 8.01528 61.1771 8.21274 0.130304 -0.889329 -3.5595 0.137109 -0.661178 -3.60879 0.182733 0.100052 -3.66742 0.164289 -0.480013 -3.63729 -6.42801 -2.4144 1.72445 -6.41466 -5.73162 1.26605 -0.0 0.0 -0.0 9.74433 -12.8555 19.2078 -1.34642 -3.24941 51.5335 1.94441 -43.9215 0.784105 7.85207 0.209753 -0.980301 1.93151 -17.1826 5.60328 -0.0 0.0 -0.0 8.21243 -4.54795 -15.871 -25.6652 21.256 -53.2428 0.518839 14.4142 -0.0656104 68.9644 2.63363 7.86963 -0.477054 -24.2069 -6.89294 0.0 0.0 0.0 9.75693 6.13981 -19.934 -14.4037 0.320315 2.1814 30.3831 -6.68517 -4.02808 18.9846 -0.0 -0.0 -0.0 0.0 -0.0 25.4128 22.8789 -24.7071 -31.3705 0.0108629 -4.75458 38.4281 23.3657 5.3649 40.2172 -0.0 -0.0 0.0 0.0 0.0 
897.938 743.533 -1517.08 7.51417 63.2014 8.20944 0.389018 -0.897857 -3.47118 0.395467 -0.675298 -3.5212 0.440294 0.0519284 -3.58491 0.422732 -0.51453 -3.54822 -6.02988 -2.84995 1.73176 -6.01336 -6.54294 1.21238 -0.0 0.0 -0.0 10.0136 -13.4946 19.7814 -1.19511 -3.90431 51.6092 1.89437 -43.1759 0.749632 5.478 0.160545 -0.681049 1.87705 -14.2898 6.54871 -0.0 0.0 -0.0 8.44856 -4.18616 -16.3444 -25.2711 22.3798 -53.5408 0.481156 13.4065 -0.056551 68.7696 2.61371 7.85453 -0.894262 -26.1416 -5.31136 0.0 0.0 0.0 11.3245 9.37083 -19.9795 -15.5187 0.322087 2.35247 29.844 -6.97206 -3.9746 18.2892 -0.0 -0.0 -0.0 0.0 -0.0 27.8353 29.6353 -25.1765 -36.7677 0.27404 -5.54046 38.6508 20.2221 5.23956 40.2996 -0.0 -0.0 0.0 0.0 0.0 
891.428 737.351 -1514.62 9.33958 65.07 5.67828 0.235563 -1.00414 -3.34069 0.241425 -0.789658 -3.39773 0.291801 -0.0762514 -3.48735 0.275377 -0.625728 -3.43167 -5.76297 -3.13384 1.7874 -5.74307 -7.10743 1.23219 -0.0 0.0 -0.0 10.5199 -14.0912 20.8864 -1.00487 -4.50328 51.9422 1.86166 -42.6784 0.727352 3.81538 0.118717 -0.472789 1.88484 -12.2552 7.50988 -0.0 0.0 -0.0 8.50239 -3.98635 -16.4583 -25.0162 23.2225 -53.7448 0.468779 13.0737 -0.0537163 68.367 2.5727 7.82311 -1.17052 -27.2651 -4.25344 0.0 0.0 0.0 13.1097 12.9397 -19.3881 -16.2843 0.321375 2.46993 29.0482 -7.13157 -3.89032 17.1812 -0.0 -0.0 -0.0 0.0 -0.0 31.799 35.0153 -27.1326 -40.535 0.501152 -6.073 38.1662 18.0018 5.10469 39.5958 -0.0 -0.0 0.0 0.0 0.0 
889.279 739.572 -1513.0 7.56641 66.3859 6.70371 0.20842 -1.02316 -3.26653 0.213988 -0.813346 -3.32493 0.264681 -0.112789 -3.421 0.248943 -0.651349 -3.36038 -5.34479 -3.25603 1.80395 -5.32147 -7.34274 1.25382 -0.0 0.0 -0.0 10.842 -14.5187 21.5921 -0.792939 -4.93909 51.9743 1.83516 -42.2694 0.709458 2.65205 0.0858631 -0.327823 1.89584 -10.9074 8.18017 -0.0 0.0 -0.0 8.54182 -3.4955 -16.5572 -24.9686 24.1455 -53.4207 0.513706 14.2775 -0.0643387 67.992 2.53472 7.79359 -1.33783 -27.6608 -3.50842 0.0 0.0 0.0 14.801 15.6806 -19.259 -16.3782 0.32118 2.48434 28.5096 -7.22961 -3.83236 16.4164 -0.0 -0.0 -0.0 0.0 -0.0 33.9539 37.592 -27.8699 -42.6296 0.642482 -6.36243 38.4385 17.3158 5.10455 39.0883 -0.0 -0.0 0.0 0.0 0.0 
888.153 747.452 -1510.66 5.97786 66.8999 7.8419 0.0249554 -0.869517 -3.13607 0.0301784 -0.668302 -3.18498 0.0707081 0.0116618 -3.25425 0.0562826 -0.502162 -3.21533 -5.01642 -3.79233 0.180488 -5.00502 -7.10784 -0.4729 -0.0 0.0 -0.0 10.7778 -15.7149 21.4 -1.67866 -4.88741 52.5851 1.84584 -42.4348 0.716652 2.55489 0.0829859 -0.315745 2.16539 -11.8677 9.59268 -0.0 0.0 -0.0 8.42538 -3.2153 -16.3406 -25.5106 24.5589 -52.6405 0.544275 15.0893 -0.0720874 67.2722 2.46234 7.73623 -1.28328 -25.5958 -2.90543 0.0 0.0 0.0 16.8422 20.091 -19.2859 -15.1226 0.321838 2.29169 27.5047 -10.9601 -3.78714 14.3111 -0.0 -0.0 -0.0 0.0 -0.0 34.3884 37.941 -27.3716 -40.0789 0.471794 -6.00932 36.904 19.1359 5.02806 37.3897 -0.0 -0.0 0.0 0.0 0.0 
884.662 750.266 -1509.74 5.80346 67.9566 7.7653 -0.00603858 -0.765188 -3.075 -0.000957859 -0.568065 -3.1174 0.0331329 0.0978003 -3.16718 0.0193631 -0.403372 -3.14293 -4.36979 -4.26244 -1.04725 -4.35572 -7.01264 -1.77247 -0.0 0.0 -0.0 10.7504 -16.6119 21.2962 -2.75977 -4.74961 53.5589 1.85618 -42.5942 0.723638 2.67781 0.0866221 -0.331026 2.47517 -14.0798 10.7046 -0.0 0.0 -0.0 8.45065 -3.95522 -16.3588 -25.8878 25.3058 -51.8448 0.581693 16.0747 -0.0821389 66.2334 2.35918 7.65187 -1.34134 -22.6093 -1.25356 0.0 0.0 0.0 17.3493 22.6901 -19.6672 -14.4801 0.320543 2.19312 27.5205 -14.7459 -3.87692 12.7758 -0.0 -0.0 -0.0 0.0 -0.0 34.8508 38.2974 -26.5344 -38.2346 0.358292 -5.74955 35.4304 19.7582 4.90636 36.1945 -0.0 -0.0 0.0 0.0 0.0 
